<svg xmlns="http://www.w3.org/2000/svg" width="380" height="104" class="ge-export-svg-dark" viewBox="-.5 -.5 380 104">
  <svg xmlns="http://www.w3.org/2000/svg" xmlns:xlink="http://www.w3.org/1999/xlink" width="380" height="104" x="-.5" y="-.5" font-family="initial" preserveAspectRatio="none" viewBox="123 106.1364 380 103.9941">
    <svg width="380" height="103.9941" x="123" y="106.1364" preserveAspectRatio="none" viewBox="1.6 -31 146.6 40.12">
      <path fill="#f2f2f3" d="M1.6 5.72v-23.36q0-.92.06-1.36.06-.44.34-1 .56-1.08 2.68-1.08t2.86.54q.74.54.86 1.58 1.52-2.08 4.78-2.08 3.26 0 6.18 3.08t2.92 7.16q0 4.08-2.9 7.16T13.2-.56q-3.28 0-4.76-1.84v8.08q0 .92-.06 1.36-.06.44-.36 1.02-.3.58-1.02.82t-1.96.24q-1.24 0-1.98-.24t-1.04-.8q-.3-.56-.36-1-.06-.44-.06-1.36Zm7.92-18.84q-.92 1.08-.92 2.36 0 1.28.94 2.34.94 1.06 2.4 1.06t2.48-1.04q1.02-1.04 1.02-2.36 0-1.32-.96-2.38-.96-1.06-2.5-1.06t-2.46 1.08Zm14.76 2.6q0-4.8 3.36-7.92t7.68-3.12q4.32 0 7.64 3.1 3.32 3.1 3.32 7.9 0 3.32-1.72 5.9-1.72 2.58-4.18 3.8Q37.92.36 35.28.36q-2.64 0-5.12-1.3t-4.18-3.84q-1.7-2.54-1.7-5.74Zm8.36 2.86q1.28.98 2.6.98t2.64-1q1.32-1 1.32-2.96t-1.24-2.92q-1.24-.96-2.68-.96-1.44 0-2.68 1-1.24 1-1.24 2.94t1.28 2.92ZM60.6-21.08q4 0 6.66 3.06t2.66 7.46v7.04q0 .92-.06 1.38-.06.46-.34 1.02-.56 1.08-3.12 1.08-2.84 0-3.28-1.48-.24-.68-.24-2.04v-7.04q0-1.64-.94-2.56-.94-.92-2.52-.92t-2.56.96q-.98.96-.98 2.52v7.08q0 .92-.06 1.38-.06.46-.38 1.02-.52 1.08-3.08 1.08-2.52 0-3.08-1.08-.28-.6-.34-1.06-.06-.46-.06-1.38v-14.16q0-.88.06-1.34.06-.46.38-1.02.56-1 3.08-1 2.44 0 3 .92.4.68.4 1.64.16-.28.72-.8.56-.52 1.08-.84 1.36-.92 3-.92Zm11.92 10.56q0-4.8 3.36-7.92t7.68-3.12q4.32 0 7.64 3.1 3.32 3.1 3.32 7.9 0 3.32-1.72 5.9-1.72 2.58-4.18 3.8Q86.16.36 83.52.36q-2.64 0-5.12-1.3t-4.18-3.84q-1.7-2.54-1.7-5.74Zm8.36 2.86q1.28.98 2.6.98t2.64-1q1.32-1 1.32-2.96t-1.24-2.92q-1.24-.96-2.68-.96-1.44 0-2.68 1-1.24 1-1.24 2.94t1.28 2.92Zm32.6-6.26-3.96 3.36 5.32 4.4q1 .84 1.26 1.28.26.44.26.84 0 .96-1.24 2.6-1.36 1.68-2.4 1.68-.88 0-2.44-1.16l-.4-.28q-.92-.76-2.84-2.66-1.92-1.9-2.92-2.7v3.08q0 .92-.06 1.38-.06.46-.38 1.06Q103.16 0 100.6 0q-2.52 0-3.08-1.08-.28-.6-.34-1.06-.06-.46-.06-1.38v-23.96q0-.92.06-1.38.06-.46.34-1.06.56-1.08 3.12-1.08 1.92 0 2.72.68.68.56.72 1.76.04.36.04 1.12v12.68q.72-.6 2.18-2.04 1.46-1.44 2.18-2.04l.48-.32q1.4-1.08 2.4-1.08t2.3 1.62q1.3 1.62 1.3 2.54 0 .92-1.48 2.16Zm17.56-4.92q.24-2.24 3.16-2.24 1.56 0 2.32.24.76.24 1.06.84.3.6.36 1.06.06.46.06 1.38v14q0 .92-.06 1.38-.06.46-.34 1.06-.56 1.04-2.74 1.04t-2.92-.54q-.74-.54-.86-1.58-1.48 2.12-4.94 2.12-3.46 0-6.42-3.16t-2.96-7.34q0-4.18 2.98-7.32 2.98-3.14 6.54-3.14 1.36 0 2.48.48 1.12.48 1.56.9.44.42.72.82Zm-7.28 8.32q0 1.32 1.04 2.38 1.04 1.06 2.52 1.06t2.46-1.08q.98-1.08.98-2.38 0-1.3-.94-2.42-.94-1.12-2.52-1.12t-2.56 1.12q-.98 1.12-.98 2.44Zm17.44 7v-14.04q0-.92.06-1.38.06-.46.34-1.06.56-1.04 3.12-1.04 1.92 0 2.72.68.68.56.72 1.72.04.4.04 1.16v14q0 .92-.06 1.38-.06.46-.38 1.06Q147.24 0 144.68 0q-2.52 0-3.08-1.08-.28-.6-.34-1.04-.06-.44-.06-1.4Zm6.58-21.46q-.3.58-1.06.82t-2.02.24q-1.26 0-2.02-.24t-1.06-.84q-.3-.6-.36-1.06-.06-.46-.06-1.38 0-.92.06-1.38.06-.46.34-1.02.56-1.08 3.12-1.08 2.52 0 3.04 1.08.32.6.38 1.06.06.46.06 1.38 0 .92-.06 1.38-.06.46-.36 1.04Z" class="companyName5e8db3f6-0ad0-49a7-9226-8070dace5d96"/>
    </svg>
  </svg>
</svg>
