<svg xmlns="http://www.w3.org/2000/svg"  viewBox="0 0 50 50" width="50px" height="50px"><path d="M4,12.75C4,7.918,7.918,4,12.75,4h24.5C42.082,4,46,7.918,46,12.75v24.5c0,4.832-3.918,8.75-8.75,8.75h-24.5 C7.918,46,4,42.082,4,37.25V12.75z M29,27v-4c0-4.136-3.364-7.5-7.5-7.5S14,18.864,14,23v4c0,4.136,3.364,7.5,7.5,7.5 S29,31.136,29,27z M27,23v4c0,3.032-2.468,5.5-5.5,5.5S16,30.032,16,27v-4c0-3.032,2.468-5.5,5.5-5.5S27,19.968,27,23z M34,28V16.5 c0-0.553-0.447-1-1-1s-1,0.447-1,1V28c0,0.553,0.447,1,1,1S34,28.553,34,28z M33,32c-0.828,0-1.5,0.672-1.5,1.5S32.172,35,33,35 s1.5-0.672,1.5-1.5S33.828,32,33,32z"/></svg>